Coordinates
version=1
nRows=20
nColumns=34
inDegrees=yes

Units are S.I. units (second, meters, Newtons, ...)
If the header above contains a line with 'inDegrees', this indicates whether rotational values are in degrees (yes) or radians (no).

endheader
time	pelvis_tilt	pelvis_list	pelvis_rotation	pelvis_tx	pelvis_ty	pelvis_tz	hip_flexion_r	hip_adduction_r	hip_rotation_r	knee_angle_r	ankle_angle_r	subtalar_angle_r	mtp_angle_r	hip_flexion_l	hip_adduction_l	hip_rotation_l	knee_angle_l	ankle_angle_l	subtalar_angle_l	mtp_angle_l	lumbar_extension	lumbar_bending	lumbar_rotation	arm_flex_r	arm_add_r	arm_rot_r	elbow_flex_r	pro_sup_r	arm_flex_l	arm_add_l	arm_rot_l	elbow_flex_l	pro_sup_l
      0.00000000	      2.24481922	     -1.50699109	    -14.44622189	      2.95059134	      0.97193071	      1.31551478	     25.57390508	     13.64511670	     -6.26578781	     23.27400078	      1.78234115	     -3.39512235	      0.00000000	     34.88275403	     11.53173770	    -15.46249666	     48.37029684	     10.88638396	      1.91065352	      0.00000000	    -16.05558343	    -15.81021875	     51.46409855	     40.27364971	     32.20835179	     21.98012153	     31.39291067	     94.99945681	      8.22186443	     33.05015087	     51.38827339	     32.22426039	     83.38677370
      0.01666670	      2.24742364	     -1.50710014	    -14.44677025	      2.95064632	      0.97198906	      1.31547624	     25.57507009	     13.64495369	     -6.26553594	     23.27311883	      1.78190211	     -3.39468649	      0.00000000	     34.88521936	     11.52985657	    -15.46100264	     48.36927647	     10.88625602	      1.91077916	      0.00000000	    -16.05558998	    -15.81197864	     51.46365718	     40.27152285	     32.20714427	     21.98033854	     31.39230405	     94.99960449	      8.22189316	     33.05268830	     51.38801564	     32.22491329	     83.38665138
      0.03333330	      2.19107450	     -1.58430397	    -14.59971780	      2.95066314	      0.97180241	      1.31384465	     25.80297327	     13.66147356	     -6.04191594	     23.56269410	      1.52943193	     -3.24203296	      0.00000000	     34.91844647	     11.61216156	    -15.21368783	     48.20881427	     10.76164551	      2.07189695	      0.00000000	    -16.04733689	    -15.55835565	     51.41506694	     39.48753807	     32.10197022	     22.23949387	     31.37185250	     95.10978066	      7.92999260	     33.59865301	     51.29903598	     32.10827852	     83.33907051
      0.05000000	      1.80065450	     -1.88893486	    -14.62953315	      2.95073284	      0.97065357	      1.31152257	     26.35580884	     13.90480260	     -6.21417709	     23.79802672	      1.40301837	     -3.45346046	      0.00000000	     35.39520242	     11.58384649	    -14.64786730	     48.26140672	     10.80752147	      1.94718033	      0.00000000	    -15.74485741	    -14.81323664	     51.36547136	     38.57859854	     31.71704245	     23.24606445	     31.76110762	     95.71313954	      7.54016449	     34.39389339	     50.94188818	     31.54776508	     83.22492555
      0.06666670	      1.78835452	     -2.01954587	    -14.75842691	      2.95074052	      0.97027952	      1.30945878	     26.51703363	     13.94360951	     -6.06660480	     24.07948274	      1.33417195	     -3.45079451	      0.00000000	     35.31588592	     11.68056082	    -14.46942470	     47.85267709	     10.66825781	      2.13262025	      0.00000000	    -15.83911815	    -14.38270790	     51.20066135	     37.95122088	     31.82916475	     23.43084241	     31.53890508	     95.79798045	      7.31188274	     34.88164039	     51.10303628	     31.46722502	     83.24283333
      0.08333330	      1.58571621	     -2.81452527	    -14.28176430	      2.95112299	      0.96955161	      1.30660368	     26.62512232	     14.41922598	     -6.77432497	     23.98646999	      1.16118050	     -3.61059058	      0.00000000	     35.32969837	     11.53044234	    -13.24413627	     47.69475085	     10.55112263	      1.98838335	      0.00000000	    -15.95061881	    -12.94379185	     50.60971959	     37.31522102	     31.75367784	     24.58484992	     31.60572900	     96.75848979	      7.07559313	     35.55593786	     51.53159101	     30.60157197	     83.40193254
      0.10000000	      1.55075292	     -2.94799473	    -14.41112502	      2.95164815	      0.96922052	      1.30528573	     26.68603681	     14.49713107	     -6.76708524	     24.13775056	      1.17243562	     -3.64804388	      0.00000000	     35.11354805	     11.55139309	    -13.16932676	     47.03504355	     10.46253428	      2.12235498	      0.00000000	    -15.84356490	    -12.52151811	     50.33380053	     36.79738098	     32.14139605	     24.71676599	     31.56910816	     96.82958770	      6.78458304	     35.82625041	     51.64767547	     30.28403469	     83.41739181
      0.11666670	      1.56349726	     -3.79295746	    -13.55118081	      2.95218812	      0.96914598	      1.30283218	     26.47463825	     14.85481407	     -7.89283455	     23.83458854	      0.99124095	     -3.59630881	      0.00000000	     34.73357992	     11.54107510	    -11.76477986	     46.71848511	     10.37801606	      1.95310306	      0.00000000	    -16.19862912	    -11.09178334	     49.23030541	     36.41135583	     32.32090836	     25.11465030	     32.00299377	     97.68627767	      6.71452768	     36.48461100	     51.85003447	     29.02791798	     83.68496021
      0.13333330	      1.49415356	     -3.89865167	    -13.61496675	      2.95247206	      0.96882519	      1.30122772	     26.55692773	     14.89899296	     -7.82675914	     23.89679309	      1.04048155	     -3.62476893	      0.00000000	     34.49139427	     11.50623257	    -11.89663341	     45.99146244	     10.30395512	      2.03708724	      0.00000000	    -16.05100759	    -10.60346061	     48.71019206	     36.16490691	     32.72008452	     25.18696077	     32.13561407	     97.75600548	      6.48601187	     36.70550028	     51.92734322	     28.58860604	     83.69938724
      0.15000000	      1.52244614	     -4.12887661	    -13.26005212	      2.95236268	      0.96870591	      1.29962699	     26.47532080	     14.93323964	     -8.09376382	     23.74020754	      1.10714190	     -3.77003554	      0.00000000	     34.14498241	     11.65977036	    -11.41029909	     45.39204500	     10.30005565	      2.31297641	      0.00000000	    -16.14086893	    -10.11399583	     47.59530114	     35.99794309	     33.04308178	     25.29155940	     32.72453030	     98.02921155	      6.76070136	     37.25943359	     51.74947453	     26.86074873	     83.70696781
      0.16666670	      1.60094434	     -4.40368805	    -12.94441633	      2.95220799	      0.96874294	      1.29773498	     26.32724086	     14.96800996	     -8.48457771	     23.56183929	      1.04971508	     -3.80201865	      0.00000000	     33.57868350	     11.80291349	    -10.81225724	     44.58273242	     10.35789990	      2.72801003	      0.00000000	    -16.31719841	     -9.50025937	     46.50784754	     35.95397470	     33.27796711	     25.32609676	     33.15847898	     98.32843479	      7.00401439	     37.53833052	     51.50916956	     25.70386371	     83.73061393
      0.18333330	      1.80033476	     -4.73987617	    -12.70698360	      2.95239737	      0.96876585	      1.29540884	     26.17254870	     14.98263794	     -8.93043662	     23.69941289	      1.18043568	     -3.80300864	      0.00000000	     32.83396258	     11.89320450	    -10.17288494	     43.81011963	     10.53925506	      3.29323744	      0.00000000	    -16.55011515	     -8.75745439	     45.78603254	     35.95971422	     33.30190042	     25.19436451	     33.44476596	     98.60895940	      7.01755005	     37.86355993	     51.30824902	     24.64245693	     83.74350096
      0.20000000	      2.30841491	     -5.37241035	    -12.22653311	      2.95323847	      0.96934090	      1.29278416	     25.52201093	     15.04905259	    -10.00582273	     23.68337943	      1.56822900	     -3.06757229	      0.00000000	     31.64943666	     11.86293811	     -9.40339861	     43.13399245	     10.87027120	      3.85894400	      0.00000000	    -17.13747357	     -7.72414966	     45.10441281	     35.84096114	     33.22928057	     24.51285934	     33.80304772	     99.21497703	      6.81145435	     38.19038962	     51.45213192	     23.67729754	     83.87305196
      0.21666670	      2.55924780	     -5.64351033	    -12.18664426	      2.95432913	      0.96894342	      1.29107704	     25.57383756	     15.03247918	    -10.31305559	     24.49431597	      1.96415608	     -3.08145448	      0.00000000	     30.89782079	     11.89873057	     -9.05674982	     42.46892602	     11.30046758	      4.16486569	      0.00000000	    -17.16053145	     -7.13282329	     45.01361253	     35.88730904	     32.85904407	     24.14011678	     33.97859858	     99.40793497	      6.48543903	     38.42812953	     51.50425323	     22.93603136	     83.87553034
      0.23333330	      3.00665601	     -5.87759768	    -12.05138325	      2.95516723	      0.96895135	      1.28953975	     25.35115518	     14.89694310	    -10.79533922	     25.15239552	      2.48633680	     -2.73558054	      0.00000000	     29.92005523	     12.03098757	     -8.61265191	     41.77815673	     11.92304175	      4.79362800	      0.00000000	    -17.42417923	     -6.64945458	     44.44478019	     35.64819978	     32.64024242	     23.47089034	     34.50873997	     99.66078849	      6.67382087	     38.67134419	     51.42821421	     21.89496753	     83.83358895
      0.25000000	      3.79314688	     -6.20036505	    -11.81176977	      2.95647472	      0.96993017	      1.28870191	     24.47680775	     14.71770249	    -11.76833299	     25.45385013	      3.18685451	     -1.42037491	      0.00000000	     28.54761064	     12.05589279	     -8.23279480	     41.06821009	     12.31073169	      5.54168972	      0.00000000	    -17.94467591	     -6.23561255	     43.68127705	     35.26506592	     32.56967850	     22.47357379	     35.04333685	    100.20643843	      6.89561779	     38.71145254	     51.04437352	     21.10934263	     83.69087960
      0.26666670	      4.17361185	     -6.35180699	    -11.93764641	      2.95668977	      0.96978975	      1.28847789	     24.25855448	     14.70623413	    -11.95681940	     25.97086350	      3.54038503	     -1.06241000	      0.00000000	     27.82058670	     12.13917409	     -7.74638150	     40.42037082	     12.90047146	      5.71458994	      0.00000000	    -18.03629924	     -5.99491469	     43.29517794	     35.10266155	     32.30328846	     22.10489060	     35.46102948	    100.46846424	      7.05843483	     38.73574370	     50.73957169	     20.44336053	     83.56990874
      0.28333330	      4.86330144	     -6.57533737	    -11.93692150	      2.95702729	      0.97059941	      1.28755802	     23.53906593	     14.54455379	    -12.61313803	     26.25020144	      4.05272228	      0.03602847	      0.00000000	     26.51036911	     12.37621850	     -6.96254501	     39.28954124	     13.11885499	      6.41172189	      0.00000000	    -18.59759197	     -5.64131289	     43.00354706	     34.70335601	     31.91754559	     21.26679695	     36.08699163	    101.03032214	      7.15871236	     39.01815793	     50.16066104	     19.81572931	     83.30570924
      0.30000000	      5.26910438	     -6.81665631	    -12.06425844	      2.95703724	      0.97097698	      1.28655796	     23.05657589	     14.47604304	    -13.30104668	     26.39177628	      4.52079147	      1.37126278	      0.00000000	     25.33984765	     12.63852256	     -5.99866794	     37.72560456	     13.31029240	      6.81116856	      0.00000000	    -18.97240317	     -5.22527371	     42.96775536	     34.56507376	     31.45464054	     20.84484106	     36.37601456	    101.92482406	      7.07275698	     39.22529029	     49.76190120	     19.41429408	     82.96805578
      0.31666670	      5.04965500	     -6.94482524	    -12.46783211	      2.95646038	      0.97040154	      1.28596636	     23.25948471	     14.64177706	    -13.30863067	     26.36287081	      4.26433274	      1.65570638	      0.00000000	     24.94765445	     12.64884518	     -5.53164423	     36.16632111	     13.31502159	      7.14316786	      0.00000000	    -18.73769857	     -4.82618560	     42.85658551	     34.35541795	     31.23467569	     20.85512215	     36.52161494	    102.03472686	      7.10647764	     39.15964760	     49.64709327	     19.09582862	     82.90316857
